<?xml version="1.0" encoding="UTF-8" standalone="no"?>
<!-- Created with Inkscape (http://www.inkscape.org/) -->

<svg
   width="20.802866mm"
   height="26.755989mm"
   viewBox="0 0 20.802866 26.755989"
   version="1.1"
   id="svg1"
   xml:space="preserve"
   inkscape:version="1.3 (0e150ed6c4, 2023-07-21)"
   sodipodi:docname="lipuKoje.svg"
   inkscape:export-filename="devotees language.png"
   inkscape:export-xdpi="96"
   inkscape:export-ydpi="96"
   xmlns:inkscape="http://www.inkscape.org/namespaces/inkscape"
   xmlns:sodipodi="http://sodipodi.sourceforge.net/DTD/sodipodi-0.dtd"
   xmlns="http://www.w3.org/2000/svg"
   xmlns:svg="http://www.w3.org/2000/svg"><sodipodi:namedview
     id="namedview1"
     pagecolor="#949494"
     bordercolor="#111111"
     borderopacity="1"
     inkscape:showpageshadow="0"
     inkscape:pageopacity="0"
     inkscape:pagecheckerboard="1"
     inkscape:deskcolor="#d1d1d1"
     inkscape:document-units="mm"
     inkscape:zoom="7.9999999"
     inkscape:cx="62.437501"
     inkscape:cy="37.6875"
     inkscape:window-width="1920"
     inkscape:window-height="991"
     inkscape:window-x="-9"
     inkscape:window-y="-9"
     inkscape:window-maximized="1"
     inkscape:current-layer="layer1" /><defs
     id="defs1"><rect
       x="291.328"
       y="765.08954"
       width="499.21738"
       height="321.02649"
       id="rect11" /><rect
       x="112.12159"
       y="31.289747"
       width="195.69807"
       height="1042.7936"
       id="rect2" /><rect
       x="112.12159"
       y="31.289747"
       width="719.66418"
       height="1153.8094"
       id="rect9" /><rect
       x="112.12159"
       y="31.289747"
       width="719.66418"
       height="1153.8094"
       id="rect10" /></defs><g
     inkscape:groupmode="layer"
     id="layer1"
     inkscape:label="Layer 1"
     transform="translate(5.5628816,-6.7139858)"><rect
       style="fill:#ffffff;stroke:#ffffff;stroke-width:0.79375;stroke-linejoin:miter"
       id="rect1"
       width="20.009115"
       height="25.962238"
       x="-5.1660066"
       y="7.1108608"
       ry="0" /><path
       d="m 4.6698505,30.365529 c -6.87917,-7.19666 -6.81461,-13.68777 0.19403,-19.47333 l -2.96334,-3.3513905 c -7.69055,8.1491705 -7.70219,16.4863705 -0.0353,25.0119405 z"
       style="display:inline;fill:#0000ff;fill-opacity:1;fill-rule:nonzero;stroke:none;stroke-width:0.352778"
       id="path6626" /><g
       id="g6840"
       transform="matrix(0.16844425,0,0,-0.16844425,5.1110879,15.132311)"
       style="display:inline;fill:#0000ff"><path
         d="M -0.27865435,3.0651979 C 23.112441,4.5965726 36.50402,-3.6835926 39.896082,-21.774591 l -11.059536,-0.388674 c -1.012672,5.040746 -3.10939,8.774841 -6.289448,11.200872 -3.580746,3.0387227 -8.586158,4.3694004 -15.0169425,3.9927402 l 0.7420136,-7.2434662 c 4.3340659,0.565344 7.7261289,-0.07067 10.1761869,-1.908035 2.308722,-2.026051 3.733388,-5.300097 4.275412,-9.822847 l 0.388673,-3.038722 c 10.859546,0.330019 18.809692,-0.02332 23.850438,-1.06002 l -0.141336,5.158762 C 45.738203,-1.7522371 29.813884,10.025992 -0.95,10.45 Z"
         style="fill:#0000ff;fill-opacity:1;fill-rule:nonzero;stroke:none;stroke-width:0.70668"
         id="path6842" /></g><g
       id="g6568"
       transform="matrix(0.16387909,0,0,-0.16387909,7.4095929,21.960518)"
       style="display:inline;fill:#0000ff"><path
         d="m -5.7779241,-6.2722941 c 3.6068046,3.6779868 7.9368209,5.51662461 12.9907606,5.51662461 5.0062475,0 9.3248745,-1.83863781 12.9551695,-5.51662461 3.369056,-3.4402382 5.184203,-7.5332179 5.445442,-12.2789379 l -14.663543,-0.391503 c -0.09467,6.406403 0.07118,10.2502444 0.498275,11.5315249 L 3.1198571,-7.9094859 3.7249063,-19.12069 -11.223366,-19.44101 c 0.09467,5.125122 1.9098195,9.514931 5.4454419,13.1687159 m -12.4213029,-20.5004879 51.037674,1.174507 -0.177956,5.801353 h 0.142364 c 0,7.189408 -2.479277,13.3466722 -7.438545,18.4717945 l -0.07118,0.07118 c -5.00625,5.125124 -11.033251,7.687685 -18.0802935,7.687685 -7.07053287,0 -13.109635,-2.562561 -18.1158825,-7.687683 v -0.07118 c -5.006248,-5.1251223 -7.509727,-11.2823865 -7.509727,-18.4717945 h 0.07118 z"
         style="fill:#0000ff;fill-opacity:1;fill-rule:nonzero;stroke:none;stroke-width:0.711823"
         id="path6570" /></g><g
       id="g6576"
       transform="matrix(0.11665282,0,0,-0.11665282,8.5741421,28.523604)"
       style="display:inline;fill:#0000ff"><path
         d="M 0,0 C 1.067,0.033 2.133,0.05 3.2,0.05 15.867,0.35 27.833,0.467 39.1,0.4 L 38.95,10.45 C 25.417,10.217 13.5,10.033 3.2,9.9 2.1,9.9 1.033,9.883 0,9.85 -18.033,9.683 -30.75,9.717 -38.15,9.95 L -38.1,-1.4 C -24.767,-0.767 -12.067,-0.3 0,0"
         style="fill:#0000ff;fill-opacity:1;fill-rule:nonzero;stroke:none"
         id="path6578" /></g></g></svg>
